<svg xmlns="http://www.w3.org/2000/svg" viewBox="0 0 128 128" width="100%" height="100%">
  <defs>
    <linearGradient id="st-top" x1="0%" y1="0%" x2="100%" y2="100%">
      <stop offset="0%" stop-color="#FFB300"/>
      <stop offset="100%" stop-color="#FB8C00"/>
    </linearGradient>
    <linearGradient id="st-mid" x1="0%" y1="0%" x2="100%" y2="100%">
      <stop offset="0%" stop-color="#FF9800"/>
      <stop offset="100%" stop-color="#F57C00"/>
    </linearGradient>
    <linearGradient id="st-bot" x1="0%" y1="0%" x2="100%" y2="100%">
      <stop offset="0%" stop-color="#FF5722"/>
      <stop offset="100%" stop-color="#E64A19"/>
    </linearGradient>
  </defs>
  <rect width="128" height="128" rx="26" fill="#1E1E1E"/>
  
  <!-- Back/Bottom orange stripe -->
  <path d="M106 86.5L22 115.5C19.5 116.4 17 114.5 17 111.8V95.2C17 93.7 18 92.4 19.5 91.9L103.5 62.9C106 62 108.5 63.9 108.5 66.6V83.2C108.5 84.7 107.5 86 106 86.5Z" fill="url(#st-bot)"/>
  
  <!-- Middle connecting stripe -->
  <path d="M22 62.5L106 91.5C108.5 92.4 111 90.5 111 87.8V71.2C111 69.7 110 68.4 108.5 67.9L24.5 38.9C22 38 19.5 39.9 19.5 42.6V59.2C19.5 60.7 20.5 62 22 62.5Z" fill="url(#st-mid)"/>
  
  <!-- Shadow between layers -->
  <path d="M19.5 42.6L75 62L19.5 59.2Z" fill="#BF360C" opacity="0.4"/>
  <path d="M108.5 67.9L53 48.5L108.5 71.2Z" fill="#BF360C" opacity="0.4"/>

  <!-- Top bright stripe -->
  <path d="M22 38.5L106 9.5C108.5 8.6 111 10.5 111 13.2V29.8C111 31.3 110 32.6 108.5 33.1L24.5 62.1C22 63 19.5 61.1 19.5 58.4V41.8C19.5 40.3 20.5 39 22 38.5Z" fill="url(#st-top)"/>
</svg>